<mxfile host="app.diagrams.net" modified="2023-05-14T10:25:20.958Z" agent="Mozilla/5.0 (Macintosh; Intel Mac OS X 10_15_7) AppleWebKit/537.36 (KHTML, like Gecko) Chrome/112.0.0.0 Safari/537.36" etag="aLBGYukc42sTS-JZCkYC" version="21.3.0" type="github">
  <diagram name="第 1 页" id="g0JlCwC38eCkOOC46Ky8">
    <mxGraphModel dx="1434" dy="795" grid="1" gridSize="10" guides="1" tooltips="1" connect="1" arrows="1" fold="1" page="1" pageScale="1" pageWidth="827" pageHeight="1169" math="0" shadow="0">
      <root>
        <mxCell id="0" />
        <mxCell id="1" parent="0" />
        <mxCell id="VtgX_Eldcs1xXr-tKEIO-2" value="" style="endArrow=none;html=1;rounded=1;startArrow=none;startFill=0;endFill=0;fillColor=#dae8fc;strokeColor=#6c8ebf;strokeWidth=2;shadow=1;" edge="1" parent="1">
          <mxGeometry width="50" height="50" relative="1" as="geometry">
            <mxPoint x="340" y="360" as="sourcePoint" />
            <mxPoint x="850" y="340" as="targetPoint" />
            <Array as="points">
              <mxPoint x="340" y="340" />
            </Array>
          </mxGeometry>
        </mxCell>
        <mxCell id="VtgX_Eldcs1xXr-tKEIO-3" value="" style="endArrow=none;html=1;rounded=1;startArrow=none;startFill=0;endFill=0;fillColor=#d5e8d4;strokeColor=#82b366;strokeWidth=2;shadow=1;" edge="1" parent="1">
          <mxGeometry width="50" height="50" relative="1" as="geometry">
            <mxPoint x="340" y="280" as="sourcePoint" />
            <mxPoint x="850" y="260" as="targetPoint" />
            <Array as="points">
              <mxPoint x="340" y="260" />
            </Array>
          </mxGeometry>
        </mxCell>
        <mxCell id="VtgX_Eldcs1xXr-tKEIO-4" value="" style="endArrow=none;html=1;rounded=0;startArrow=none;startFill=0;endFill=0;fillColor=#d5e8d4;strokeColor=#82b366;strokeWidth=2;shadow=1;" edge="1" parent="1" source="VtgX_Eldcs1xXr-tKEIO-93" target="VtgX_Eldcs1xXr-tKEIO-35">
          <mxGeometry width="50" height="50" relative="1" as="geometry">
            <mxPoint x="270" y="280" as="sourcePoint" />
            <mxPoint x="340" y="280" as="targetPoint" />
          </mxGeometry>
        </mxCell>
        <mxCell id="VtgX_Eldcs1xXr-tKEIO-5" value="" style="endArrow=none;html=1;rounded=0;startArrow=none;startFill=0;endFill=0;strokeWidth=2;shadow=1;" edge="1" parent="1">
          <mxGeometry width="50" height="50" relative="1" as="geometry">
            <mxPoint x="240" y="280" as="sourcePoint" />
            <mxPoint x="270" y="280" as="targetPoint" />
          </mxGeometry>
        </mxCell>
        <mxCell id="VtgX_Eldcs1xXr-tKEIO-6" value="&lt;font style=&quot;font-size: 18px;&quot; face=&quot;LXGW WenKai&quot;&gt;心梗组&lt;/font&gt;" style="text;html=1;strokeColor=#666666;fillColor=#f5f5f5;align=center;verticalAlign=middle;whiteSpace=wrap;rounded=1;fontColor=#333333;shadow=1;" vertex="1" parent="1">
          <mxGeometry x="170" y="270" width="70" height="20" as="geometry" />
        </mxCell>
        <mxCell id="VtgX_Eldcs1xXr-tKEIO-7" value="" style="endArrow=none;html=1;rounded=0;startArrow=none;startFill=0;endFill=0;strokeWidth=2;shadow=1;" edge="1" parent="1">
          <mxGeometry width="50" height="50" relative="1" as="geometry">
            <mxPoint x="240" y="360" as="sourcePoint" />
            <mxPoint x="270" y="360" as="targetPoint" />
          </mxGeometry>
        </mxCell>
        <mxCell id="VtgX_Eldcs1xXr-tKEIO-8" value="&lt;font style=&quot;font-size: 18px;&quot; face=&quot;LXGW WenKai&quot;&gt;正常组&lt;/font&gt;" style="text;html=1;strokeColor=#666666;fillColor=#f5f5f5;align=center;verticalAlign=middle;whiteSpace=wrap;rounded=1;fontColor=#333333;shadow=1;" vertex="1" parent="1">
          <mxGeometry x="170" y="350" width="70" height="20" as="geometry" />
        </mxCell>
        <mxCell id="VtgX_Eldcs1xXr-tKEIO-9" value="" style="endArrow=none;html=1;rounded=0;startArrow=none;startFill=0;endFill=0;fillColor=#d5e8d4;strokeColor=#82b366;strokeWidth=2;" edge="1" parent="1" source="VtgX_Eldcs1xXr-tKEIO-35">
          <mxGeometry width="50" height="50" relative="1" as="geometry">
            <mxPoint x="200" y="280" as="sourcePoint" />
            <mxPoint x="340" y="280" as="targetPoint" />
          </mxGeometry>
        </mxCell>
        <mxCell id="VtgX_Eldcs1xXr-tKEIO-10" value="" style="endArrow=none;html=1;rounded=0;startArrow=none;startFill=0;endFill=0;fillColor=#d5e8d4;strokeColor=#000000;strokeWidth=2;shadow=1;" edge="1" parent="1">
          <mxGeometry width="50" height="50" relative="1" as="geometry">
            <mxPoint x="270" y="360" as="sourcePoint" />
            <mxPoint x="340" y="360" as="targetPoint" />
          </mxGeometry>
        </mxCell>
        <mxCell id="VtgX_Eldcs1xXr-tKEIO-11" value="&lt;font style=&quot;font-size: 18px;&quot; face=&quot;LXGW WenKai&quot;&gt;-2周&lt;/font&gt;" style="text;html=1;strokeColor=#666666;fillColor=#f5f5f5;align=center;verticalAlign=middle;whiteSpace=wrap;rounded=1;fontColor=#333333;shadow=1;" vertex="1" parent="1">
          <mxGeometry x="260" y="400" width="42.5" height="20" as="geometry" />
        </mxCell>
        <mxCell id="VtgX_Eldcs1xXr-tKEIO-13" value="" style="endArrow=none;html=1;rounded=1;startArrow=none;startFill=0;endFill=0;fillColor=#d5e8d4;strokeColor=#000000;strokeWidth=2;shadow=1;" edge="1" parent="1">
          <mxGeometry width="50" height="50" relative="1" as="geometry">
            <mxPoint x="340" y="360" as="sourcePoint" />
            <mxPoint x="850" y="380" as="targetPoint" />
            <Array as="points">
              <mxPoint x="340" y="380" />
            </Array>
          </mxGeometry>
        </mxCell>
        <mxCell id="VtgX_Eldcs1xXr-tKEIO-14" value="" style="endArrow=none;html=1;startArrow=none;startFill=0;endFill=0;fillColor=#d5e8d4;strokeColor=#6C8EBF;strokeWidth=2;rounded=1;shadow=1;" edge="1" parent="1">
          <mxGeometry width="50" height="50" relative="1" as="geometry">
            <mxPoint x="340" y="280" as="sourcePoint" />
            <mxPoint x="850" y="300" as="targetPoint" />
            <Array as="points">
              <mxPoint x="340" y="300" />
            </Array>
          </mxGeometry>
        </mxCell>
        <mxCell id="VtgX_Eldcs1xXr-tKEIO-22" value="&lt;font style=&quot;font-size: 18px;&quot; face=&quot;LXGW WenKai&quot;&gt;24h&lt;/font&gt;" style="text;html=1;strokeColor=#666666;fillColor=#f5f5f5;align=center;verticalAlign=middle;whiteSpace=wrap;rounded=1;fontColor=#333333;shadow=1;" vertex="1" parent="1">
          <mxGeometry x="394" y="400" width="40" height="20" as="geometry" />
        </mxCell>
        <mxCell id="VtgX_Eldcs1xXr-tKEIO-23" value="&lt;font style=&quot;font-size: 18px;&quot; face=&quot;LXGW WenKai&quot;&gt;2周&lt;/font&gt;" style="text;html=1;strokeColor=#666666;fillColor=#f5f5f5;align=center;verticalAlign=middle;whiteSpace=wrap;rounded=1;fontColor=#333333;shadow=1;" vertex="1" parent="1">
          <mxGeometry x="460" y="400" width="40" height="20" as="geometry" />
        </mxCell>
        <mxCell id="VtgX_Eldcs1xXr-tKEIO-24" value="&lt;font style=&quot;font-size: 18px;&quot; face=&quot;LXGW WenKai&quot;&gt;4周&lt;/font&gt;" style="text;html=1;strokeColor=#666666;fillColor=#f5f5f5;align=center;verticalAlign=middle;whiteSpace=wrap;rounded=1;fontColor=#333333;shadow=1;" vertex="1" parent="1">
          <mxGeometry x="530" y="400" width="40" height="20" as="geometry" />
        </mxCell>
        <mxCell id="VtgX_Eldcs1xXr-tKEIO-25" value="&lt;font style=&quot;font-size: 18px;&quot; face=&quot;LXGW WenKai&quot;&gt;6周&lt;/font&gt;" style="text;html=1;strokeColor=#666666;fillColor=#f5f5f5;align=center;verticalAlign=middle;whiteSpace=wrap;rounded=1;fontColor=#333333;shadow=1;" vertex="1" parent="1">
          <mxGeometry x="600" y="400" width="40" height="20" as="geometry" />
        </mxCell>
        <mxCell id="VtgX_Eldcs1xXr-tKEIO-26" value="&lt;font style=&quot;font-size: 18px;&quot; face=&quot;LXGW WenKai&quot;&gt;8周&lt;/font&gt;" style="text;html=1;strokeColor=#666666;fillColor=#f5f5f5;align=center;verticalAlign=middle;whiteSpace=wrap;rounded=1;fontColor=#333333;shadow=1;" vertex="1" parent="1">
          <mxGeometry x="670" y="400" width="40" height="20" as="geometry" />
        </mxCell>
        <mxCell id="VtgX_Eldcs1xXr-tKEIO-28" value="&lt;font style=&quot;font-size: 18px;&quot; face=&quot;LXGW WenKai&quot;&gt;3月&lt;/font&gt;" style="text;html=1;strokeColor=#666666;fillColor=#f5f5f5;align=center;verticalAlign=middle;whiteSpace=wrap;rounded=1;fontColor=#333333;shadow=1;" vertex="1" parent="1">
          <mxGeometry x="740" y="400" width="40" height="20" as="geometry" />
        </mxCell>
        <mxCell id="VtgX_Eldcs1xXr-tKEIO-29" value="&lt;font style=&quot;font-size: 18px;&quot; face=&quot;LXGW WenKai&quot;&gt;6月&lt;/font&gt;" style="text;html=1;strokeColor=#666666;fillColor=#f5f5f5;align=center;verticalAlign=middle;whiteSpace=wrap;rounded=1;fontColor=#333333;shadow=1;" vertex="1" parent="1">
          <mxGeometry x="810" y="400" width="40" height="20" as="geometry" />
        </mxCell>
        <mxCell id="VtgX_Eldcs1xXr-tKEIO-30" value="" style="rounded=1;whiteSpace=wrap;html=1;fillColor=none;strokeColor=#9673a6;strokeWidth=2;shadow=1;" vertex="1" parent="1">
          <mxGeometry x="610" y="250" width="20" height="140" as="geometry" />
        </mxCell>
        <mxCell id="VtgX_Eldcs1xXr-tKEIO-31" value="" style="rounded=1;whiteSpace=wrap;html=1;fillColor=none;strokeColor=#9673a6;strokeWidth=2;glass=0;shadow=1;" vertex="1" parent="1">
          <mxGeometry x="750" y="250" width="20" height="140" as="geometry" />
        </mxCell>
        <mxCell id="VtgX_Eldcs1xXr-tKEIO-32" value="" style="rounded=1;whiteSpace=wrap;html=1;fillColor=none;strokeColor=#9673a6;strokeWidth=2;shadow=1;" vertex="1" parent="1">
          <mxGeometry x="820" y="250" width="20" height="140" as="geometry" />
        </mxCell>
        <mxCell id="VtgX_Eldcs1xXr-tKEIO-35" value="" style="ellipse;whiteSpace=wrap;html=1;aspect=fixed;fillColor=#f8cecc;strokeColor=#b85450;" vertex="1" parent="1">
          <mxGeometry x="335" y="275" width="10" height="10" as="geometry" />
        </mxCell>
        <mxCell id="VtgX_Eldcs1xXr-tKEIO-36" value="" style="endArrow=none;html=1;rounded=0;startArrow=none;startFill=0;endFill=0;fillColor=#dae8fc;strokeColor=#6c8ebf;strokeWidth=2;" edge="1" parent="1" target="VtgX_Eldcs1xXr-tKEIO-37">
          <mxGeometry width="50" height="50" relative="1" as="geometry">
            <mxPoint x="340" y="360" as="sourcePoint" />
            <mxPoint x="850" y="340" as="targetPoint" />
            <Array as="points" />
          </mxGeometry>
        </mxCell>
        <mxCell id="VtgX_Eldcs1xXr-tKEIO-37" value="" style="ellipse;whiteSpace=wrap;html=1;aspect=fixed;fillColor=#f8cecc;strokeColor=#b85450;" vertex="1" parent="1">
          <mxGeometry x="335" y="355" width="10" height="10" as="geometry" />
        </mxCell>
        <mxCell id="VtgX_Eldcs1xXr-tKEIO-38" value="" style="ellipse;whiteSpace=wrap;html=1;aspect=fixed;fillColor=#e1d5e7;strokeColor=#9673a6;" vertex="1" parent="1">
          <mxGeometry x="825" y="375" width="10" height="10" as="geometry" />
        </mxCell>
        <mxCell id="VtgX_Eldcs1xXr-tKEIO-39" value="" style="ellipse;whiteSpace=wrap;html=1;aspect=fixed;fillColor=#e1d5e7;strokeColor=#9673a6;" vertex="1" parent="1">
          <mxGeometry x="825" y="335" width="10" height="10" as="geometry" />
        </mxCell>
        <mxCell id="VtgX_Eldcs1xXr-tKEIO-40" value="" style="ellipse;whiteSpace=wrap;html=1;aspect=fixed;fillColor=#e1d5e7;strokeColor=#9673a6;" vertex="1" parent="1">
          <mxGeometry x="825" y="295" width="10" height="10" as="geometry" />
        </mxCell>
        <mxCell id="VtgX_Eldcs1xXr-tKEIO-41" value="" style="ellipse;whiteSpace=wrap;html=1;aspect=fixed;fillColor=#e1d5e7;strokeColor=#9673a6;" vertex="1" parent="1">
          <mxGeometry x="825" y="255" width="10" height="10" as="geometry" />
        </mxCell>
        <mxCell id="VtgX_Eldcs1xXr-tKEIO-42" value="" style="ellipse;whiteSpace=wrap;html=1;aspect=fixed;fillColor=#e1d5e7;strokeColor=#9673a6;" vertex="1" parent="1">
          <mxGeometry x="755" y="375" width="10" height="10" as="geometry" />
        </mxCell>
        <mxCell id="VtgX_Eldcs1xXr-tKEIO-43" value="" style="ellipse;whiteSpace=wrap;html=1;aspect=fixed;fillColor=#e1d5e7;strokeColor=#9673a6;" vertex="1" parent="1">
          <mxGeometry x="755" y="335" width="10" height="10" as="geometry" />
        </mxCell>
        <mxCell id="VtgX_Eldcs1xXr-tKEIO-44" value="" style="ellipse;whiteSpace=wrap;html=1;aspect=fixed;fillColor=#e1d5e7;strokeColor=#9673a6;" vertex="1" parent="1">
          <mxGeometry x="755" y="295" width="10" height="10" as="geometry" />
        </mxCell>
        <mxCell id="VtgX_Eldcs1xXr-tKEIO-45" value="" style="ellipse;whiteSpace=wrap;html=1;aspect=fixed;fillColor=#e1d5e7;strokeColor=#9673a6;" vertex="1" parent="1">
          <mxGeometry x="615" y="375" width="10" height="10" as="geometry" />
        </mxCell>
        <mxCell id="VtgX_Eldcs1xXr-tKEIO-46" value="" style="ellipse;whiteSpace=wrap;html=1;aspect=fixed;fillColor=#e1d5e7;strokeColor=#9673a6;" vertex="1" parent="1">
          <mxGeometry x="615" y="335" width="10" height="10" as="geometry" />
        </mxCell>
        <mxCell id="VtgX_Eldcs1xXr-tKEIO-47" value="" style="ellipse;whiteSpace=wrap;html=1;aspect=fixed;fillColor=#e1d5e7;strokeColor=#9673a6;" vertex="1" parent="1">
          <mxGeometry x="615" y="295" width="10" height="10" as="geometry" />
        </mxCell>
        <mxCell id="VtgX_Eldcs1xXr-tKEIO-48" value="" style="ellipse;whiteSpace=wrap;html=1;aspect=fixed;fillColor=#e1d5e7;strokeColor=#9673a6;" vertex="1" parent="1">
          <mxGeometry x="615" y="255" width="10" height="10" as="geometry" />
        </mxCell>
        <mxCell id="VtgX_Eldcs1xXr-tKEIO-49" value="" style="ellipse;whiteSpace=wrap;html=1;aspect=fixed;fillColor=#e1d5e7;strokeColor=#9673a6;" vertex="1" parent="1">
          <mxGeometry x="755" y="255" width="10" height="10" as="geometry" />
        </mxCell>
        <mxCell id="VtgX_Eldcs1xXr-tKEIO-50" value="&lt;font style=&quot;font-size: 18px;&quot; face=&quot;LXGW WenKai&quot;&gt;心梗组&lt;/font&gt;" style="text;html=1;strokeColor=#82b366;fillColor=#d5e8d4;align=center;verticalAlign=middle;whiteSpace=wrap;rounded=1;shadow=1;" vertex="1" parent="1">
          <mxGeometry x="850" y="250" width="70" height="20" as="geometry" />
        </mxCell>
        <mxCell id="VtgX_Eldcs1xXr-tKEIO-51" value="&lt;font style=&quot;font-size: 18px;&quot; face=&quot;LXGW WenKai&quot;&gt;正常组&lt;/font&gt;" style="text;html=1;strokeColor=#666666;fillColor=#f5f5f5;align=center;verticalAlign=middle;whiteSpace=wrap;rounded=1;fontColor=#333333;shadow=1;" vertex="1" parent="1">
          <mxGeometry x="850" y="370" width="70" height="20" as="geometry" />
        </mxCell>
        <mxCell id="VtgX_Eldcs1xXr-tKEIO-52" value="&lt;font style=&quot;font-size: 18px;&quot; face=&quot;LXGW WenKai&quot;&gt;心梗+SABR组&lt;/font&gt;" style="text;html=1;strokeColor=#6c8ebf;fillColor=#dae8fc;align=center;verticalAlign=middle;whiteSpace=wrap;rounded=1;shadow=1;" vertex="1" parent="1">
          <mxGeometry x="850" y="290" width="130" height="20" as="geometry" />
        </mxCell>
        <mxCell id="VtgX_Eldcs1xXr-tKEIO-53" value="&lt;font style=&quot;font-size: 18px;&quot; face=&quot;LXGW WenKai&quot;&gt;正常+SABR组&lt;/font&gt;" style="text;html=1;strokeColor=#6c8ebf;fillColor=#dae8fc;align=center;verticalAlign=middle;whiteSpace=wrap;rounded=1;shadow=1;" vertex="1" parent="1">
          <mxGeometry x="850" y="330" width="130" height="20" as="geometry" />
        </mxCell>
        <mxCell id="VtgX_Eldcs1xXr-tKEIO-54" value="&lt;font color=&quot;#6c8ebf&quot; style=&quot;font-size: 18px;&quot; face=&quot;LXGW WenKai&quot;&gt;SABR&lt;/font&gt;" style="text;html=1;strokeColor=#6c8ebf;fillColor=#dae8fc;align=center;verticalAlign=middle;whiteSpace=wrap;rounded=1;shadow=1;" vertex="1" parent="1">
          <mxGeometry x="345" y="290" width="60" height="20" as="geometry" />
        </mxCell>
        <mxCell id="VtgX_Eldcs1xXr-tKEIO-55" value="&lt;font color=&quot;#6c8ebf&quot; style=&quot;font-size: 18px;&quot; face=&quot;LXGW WenKai&quot;&gt;SABR&lt;/font&gt;" style="text;html=1;strokeColor=#6c8ebf;fillColor=#dae8fc;align=center;verticalAlign=middle;whiteSpace=wrap;rounded=1;shadow=1;" vertex="1" parent="1">
          <mxGeometry x="345" y="330" width="60" height="20" as="geometry" />
        </mxCell>
        <mxCell id="VtgX_Eldcs1xXr-tKEIO-56" value="" style="group" vertex="1" connectable="0" parent="1">
          <mxGeometry x="409" y="255" width="10" height="130" as="geometry" />
        </mxCell>
        <mxCell id="VtgX_Eldcs1xXr-tKEIO-57" value="" style="ellipse;whiteSpace=wrap;html=1;aspect=fixed;fillColor=#ffe6cc;strokeColor=#d79b00;" vertex="1" parent="VtgX_Eldcs1xXr-tKEIO-56">
          <mxGeometry width="10" height="10" as="geometry" />
        </mxCell>
        <mxCell id="VtgX_Eldcs1xXr-tKEIO-58" value="" style="ellipse;whiteSpace=wrap;html=1;aspect=fixed;fillColor=#ffe6cc;strokeColor=#d79b00;" vertex="1" parent="VtgX_Eldcs1xXr-tKEIO-56">
          <mxGeometry y="40" width="10" height="10" as="geometry" />
        </mxCell>
        <mxCell id="VtgX_Eldcs1xXr-tKEIO-59" value="" style="ellipse;whiteSpace=wrap;html=1;aspect=fixed;fillColor=#ffe6cc;strokeColor=#d79b00;" vertex="1" parent="VtgX_Eldcs1xXr-tKEIO-56">
          <mxGeometry y="80" width="10" height="10" as="geometry" />
        </mxCell>
        <mxCell id="VtgX_Eldcs1xXr-tKEIO-60" value="" style="ellipse;whiteSpace=wrap;html=1;aspect=fixed;fillColor=#ffe6cc;strokeColor=#d79b00;" vertex="1" parent="VtgX_Eldcs1xXr-tKEIO-56">
          <mxGeometry y="120" width="10" height="10" as="geometry" />
        </mxCell>
        <mxCell id="VtgX_Eldcs1xXr-tKEIO-61" value="" style="group" vertex="1" connectable="0" parent="1">
          <mxGeometry x="475" y="255" width="10" height="130" as="geometry" />
        </mxCell>
        <mxCell id="VtgX_Eldcs1xXr-tKEIO-62" value="" style="ellipse;whiteSpace=wrap;html=1;aspect=fixed;fillColor=#ffe6cc;strokeColor=#d79b00;" vertex="1" parent="VtgX_Eldcs1xXr-tKEIO-61">
          <mxGeometry width="10" height="10" as="geometry" />
        </mxCell>
        <mxCell id="VtgX_Eldcs1xXr-tKEIO-63" value="" style="ellipse;whiteSpace=wrap;html=1;aspect=fixed;fillColor=#ffe6cc;strokeColor=#d79b00;" vertex="1" parent="VtgX_Eldcs1xXr-tKEIO-61">
          <mxGeometry y="40" width="10" height="10" as="geometry" />
        </mxCell>
        <mxCell id="VtgX_Eldcs1xXr-tKEIO-64" value="" style="ellipse;whiteSpace=wrap;html=1;aspect=fixed;fillColor=#ffe6cc;strokeColor=#d79b00;" vertex="1" parent="VtgX_Eldcs1xXr-tKEIO-61">
          <mxGeometry y="80" width="10" height="10" as="geometry" />
        </mxCell>
        <mxCell id="VtgX_Eldcs1xXr-tKEIO-65" value="" style="ellipse;whiteSpace=wrap;html=1;aspect=fixed;fillColor=#ffe6cc;strokeColor=#d79b00;" vertex="1" parent="VtgX_Eldcs1xXr-tKEIO-61">
          <mxGeometry y="120" width="10" height="10" as="geometry" />
        </mxCell>
        <mxCell id="VtgX_Eldcs1xXr-tKEIO-66" value="" style="group" vertex="1" connectable="0" parent="1">
          <mxGeometry x="545" y="255" width="10" height="130" as="geometry" />
        </mxCell>
        <mxCell id="VtgX_Eldcs1xXr-tKEIO-67" value="" style="ellipse;whiteSpace=wrap;html=1;aspect=fixed;fillColor=#ffe6cc;strokeColor=#d79b00;" vertex="1" parent="VtgX_Eldcs1xXr-tKEIO-66">
          <mxGeometry width="10" height="10" as="geometry" />
        </mxCell>
        <mxCell id="VtgX_Eldcs1xXr-tKEIO-68" value="" style="ellipse;whiteSpace=wrap;html=1;aspect=fixed;fillColor=#ffe6cc;strokeColor=#d79b00;" vertex="1" parent="VtgX_Eldcs1xXr-tKEIO-66">
          <mxGeometry y="40" width="10" height="10" as="geometry" />
        </mxCell>
        <mxCell id="VtgX_Eldcs1xXr-tKEIO-69" value="" style="ellipse;whiteSpace=wrap;html=1;aspect=fixed;fillColor=#ffe6cc;strokeColor=#d79b00;" vertex="1" parent="VtgX_Eldcs1xXr-tKEIO-66">
          <mxGeometry y="80" width="10" height="10" as="geometry" />
        </mxCell>
        <mxCell id="VtgX_Eldcs1xXr-tKEIO-70" value="" style="ellipse;whiteSpace=wrap;html=1;aspect=fixed;fillColor=#ffe6cc;strokeColor=#d79b00;" vertex="1" parent="VtgX_Eldcs1xXr-tKEIO-66">
          <mxGeometry y="120" width="10" height="10" as="geometry" />
        </mxCell>
        <mxCell id="VtgX_Eldcs1xXr-tKEIO-71" value="" style="group" vertex="1" connectable="0" parent="1">
          <mxGeometry x="615" y="255" width="10" height="130" as="geometry" />
        </mxCell>
        <mxCell id="VtgX_Eldcs1xXr-tKEIO-72" value="" style="ellipse;whiteSpace=wrap;html=1;aspect=fixed;fillColor=#ffe6cc;strokeColor=#d79b00;" vertex="1" parent="VtgX_Eldcs1xXr-tKEIO-71">
          <mxGeometry width="10" height="10" as="geometry" />
        </mxCell>
        <mxCell id="VtgX_Eldcs1xXr-tKEIO-73" value="" style="ellipse;whiteSpace=wrap;html=1;aspect=fixed;fillColor=#ffe6cc;strokeColor=#d79b00;" vertex="1" parent="VtgX_Eldcs1xXr-tKEIO-71">
          <mxGeometry y="40" width="10" height="10" as="geometry" />
        </mxCell>
        <mxCell id="VtgX_Eldcs1xXr-tKEIO-74" value="" style="ellipse;whiteSpace=wrap;html=1;aspect=fixed;fillColor=#ffe6cc;strokeColor=#d79b00;" vertex="1" parent="VtgX_Eldcs1xXr-tKEIO-71">
          <mxGeometry y="80" width="10" height="10" as="geometry" />
        </mxCell>
        <mxCell id="VtgX_Eldcs1xXr-tKEIO-75" value="" style="ellipse;whiteSpace=wrap;html=1;aspect=fixed;fillColor=#ffe6cc;strokeColor=#d79b00;" vertex="1" parent="VtgX_Eldcs1xXr-tKEIO-71">
          <mxGeometry y="120" width="10" height="10" as="geometry" />
        </mxCell>
        <mxCell id="VtgX_Eldcs1xXr-tKEIO-76" value="" style="group" vertex="1" connectable="0" parent="1">
          <mxGeometry x="685" y="255" width="10" height="130" as="geometry" />
        </mxCell>
        <mxCell id="VtgX_Eldcs1xXr-tKEIO-77" value="" style="ellipse;whiteSpace=wrap;html=1;aspect=fixed;fillColor=#ffe6cc;strokeColor=#d79b00;" vertex="1" parent="VtgX_Eldcs1xXr-tKEIO-76">
          <mxGeometry width="10" height="10" as="geometry" />
        </mxCell>
        <mxCell id="VtgX_Eldcs1xXr-tKEIO-78" value="" style="ellipse;whiteSpace=wrap;html=1;aspect=fixed;fillColor=#ffe6cc;strokeColor=#d79b00;" vertex="1" parent="VtgX_Eldcs1xXr-tKEIO-76">
          <mxGeometry y="40" width="10" height="10" as="geometry" />
        </mxCell>
        <mxCell id="VtgX_Eldcs1xXr-tKEIO-79" value="" style="ellipse;whiteSpace=wrap;html=1;aspect=fixed;fillColor=#ffe6cc;strokeColor=#d79b00;" vertex="1" parent="VtgX_Eldcs1xXr-tKEIO-76">
          <mxGeometry y="80" width="10" height="10" as="geometry" />
        </mxCell>
        <mxCell id="VtgX_Eldcs1xXr-tKEIO-80" value="" style="ellipse;whiteSpace=wrap;html=1;aspect=fixed;fillColor=#ffe6cc;strokeColor=#d79b00;" vertex="1" parent="VtgX_Eldcs1xXr-tKEIO-76">
          <mxGeometry y="120" width="10" height="10" as="geometry" />
        </mxCell>
        <mxCell id="VtgX_Eldcs1xXr-tKEIO-81" value="" style="group" vertex="1" connectable="0" parent="1">
          <mxGeometry x="755" y="255" width="10" height="130" as="geometry" />
        </mxCell>
        <mxCell id="VtgX_Eldcs1xXr-tKEIO-82" value="" style="ellipse;whiteSpace=wrap;html=1;aspect=fixed;fillColor=#ffe6cc;strokeColor=#d79b00;" vertex="1" parent="VtgX_Eldcs1xXr-tKEIO-81">
          <mxGeometry width="10" height="10" as="geometry" />
        </mxCell>
        <mxCell id="VtgX_Eldcs1xXr-tKEIO-83" value="" style="ellipse;whiteSpace=wrap;html=1;aspect=fixed;fillColor=#ffe6cc;strokeColor=#d79b00;" vertex="1" parent="VtgX_Eldcs1xXr-tKEIO-81">
          <mxGeometry y="40" width="10" height="10" as="geometry" />
        </mxCell>
        <mxCell id="VtgX_Eldcs1xXr-tKEIO-84" value="" style="ellipse;whiteSpace=wrap;html=1;aspect=fixed;fillColor=#ffe6cc;strokeColor=#d79b00;" vertex="1" parent="VtgX_Eldcs1xXr-tKEIO-81">
          <mxGeometry y="80" width="10" height="10" as="geometry" />
        </mxCell>
        <mxCell id="VtgX_Eldcs1xXr-tKEIO-85" value="" style="ellipse;whiteSpace=wrap;html=1;aspect=fixed;fillColor=#ffe6cc;strokeColor=#d79b00;" vertex="1" parent="VtgX_Eldcs1xXr-tKEIO-81">
          <mxGeometry y="120" width="10" height="10" as="geometry" />
        </mxCell>
        <mxCell id="VtgX_Eldcs1xXr-tKEIO-86" value="" style="group" vertex="1" connectable="0" parent="1">
          <mxGeometry x="825" y="255" width="10" height="130" as="geometry" />
        </mxCell>
        <mxCell id="VtgX_Eldcs1xXr-tKEIO-87" value="" style="ellipse;whiteSpace=wrap;html=1;aspect=fixed;fillColor=#ffe6cc;strokeColor=#d79b00;" vertex="1" parent="VtgX_Eldcs1xXr-tKEIO-86">
          <mxGeometry width="10" height="10" as="geometry" />
        </mxCell>
        <mxCell id="VtgX_Eldcs1xXr-tKEIO-88" value="" style="ellipse;whiteSpace=wrap;html=1;aspect=fixed;fillColor=#ffe6cc;strokeColor=#d79b00;" vertex="1" parent="VtgX_Eldcs1xXr-tKEIO-86">
          <mxGeometry y="40" width="10" height="10" as="geometry" />
        </mxCell>
        <mxCell id="VtgX_Eldcs1xXr-tKEIO-89" value="" style="ellipse;whiteSpace=wrap;html=1;aspect=fixed;fillColor=#ffe6cc;strokeColor=#d79b00;" vertex="1" parent="VtgX_Eldcs1xXr-tKEIO-86">
          <mxGeometry y="80" width="10" height="10" as="geometry" />
        </mxCell>
        <mxCell id="VtgX_Eldcs1xXr-tKEIO-90" value="" style="ellipse;whiteSpace=wrap;html=1;aspect=fixed;fillColor=#ffe6cc;strokeColor=#d79b00;" vertex="1" parent="VtgX_Eldcs1xXr-tKEIO-86">
          <mxGeometry y="120" width="10" height="10" as="geometry" />
        </mxCell>
        <mxCell id="VtgX_Eldcs1xXr-tKEIO-91" value="&lt;font style=&quot;font-size: 18px;&quot; face=&quot;LXGW WenKai&quot;&gt;0&lt;/font&gt;" style="text;html=1;strokeColor=#666666;fillColor=#f5f5f5;align=center;verticalAlign=middle;whiteSpace=wrap;rounded=1;fontColor=#333333;shadow=1;" vertex="1" parent="1">
          <mxGeometry x="318.75" y="400" width="42.5" height="20" as="geometry" />
        </mxCell>
        <mxCell id="VtgX_Eldcs1xXr-tKEIO-92" value="" style="endArrow=none;html=1;rounded=0;startArrow=none;startFill=0;endFill=0;fillColor=#d5e8d4;strokeColor=#82b366;strokeWidth=2;shadow=1;" edge="1" parent="1" target="VtgX_Eldcs1xXr-tKEIO-93">
          <mxGeometry width="50" height="50" relative="1" as="geometry">
            <mxPoint x="270" y="280" as="sourcePoint" />
            <mxPoint x="335" y="280" as="targetPoint" />
          </mxGeometry>
        </mxCell>
        <mxCell id="VtgX_Eldcs1xXr-tKEIO-93" value="&lt;font color=&quot;#82b366&quot; style=&quot;font-size: 18px;&quot; face=&quot;LXGW WenKai&quot;&gt;造模&lt;/font&gt;" style="text;html=1;strokeColor=#82b366;fillColor=#d5e8d4;align=center;verticalAlign=middle;whiteSpace=wrap;rounded=1;shadow=1;" vertex="1" parent="1">
          <mxGeometry x="256.25" y="270" width="50" height="20" as="geometry" />
        </mxCell>
        <mxCell id="VtgX_Eldcs1xXr-tKEIO-108" value="" style="group" vertex="1" connectable="0" parent="1">
          <mxGeometry x="1010" y="290" width="300" height="100" as="geometry" />
        </mxCell>
        <mxCell id="VtgX_Eldcs1xXr-tKEIO-12" value="&lt;font style=&quot;font-size: 18px;&quot; face=&quot;LXGW WenKai&quot; color=&quot;#b85450&quot;&gt;基线检测&lt;/font&gt;" style="text;html=1;strokeColor=#b85450;fillColor=#f8cecc;align=center;verticalAlign=middle;whiteSpace=wrap;rounded=1;shadow=1;" vertex="1" parent="VtgX_Eldcs1xXr-tKEIO-108">
          <mxGeometry x="25" y="30" width="75" height="20" as="geometry" />
        </mxCell>
        <mxCell id="VtgX_Eldcs1xXr-tKEIO-15" value="&lt;font style=&quot;font-size: 18px;&quot; face=&quot;LXGW WenKai&quot; color=&quot;#d79b00&quot;&gt;血清学、影像学、电生理学检查&lt;/font&gt;" style="text;html=1;strokeColor=#d79b00;fillColor=#ffe6cc;align=center;verticalAlign=middle;whiteSpace=wrap;rounded=1;shadow=1;" vertex="1" parent="VtgX_Eldcs1xXr-tKEIO-108">
          <mxGeometry x="25" width="260" height="20" as="geometry" />
        </mxCell>
        <mxCell id="VtgX_Eldcs1xXr-tKEIO-33" value="&lt;font color=&quot;#9673a6&quot; style=&quot;font-size: 18px;&quot; face=&quot;LXGW WenKai&quot;&gt;病理学检查&lt;/font&gt;" style="text;html=1;strokeColor=#9673a6;fillColor=#e1d5e7;align=center;verticalAlign=middle;whiteSpace=wrap;rounded=1;shadow=1;" vertex="1" parent="VtgX_Eldcs1xXr-tKEIO-108">
          <mxGeometry x="25" y="60" width="101" height="20" as="geometry" />
        </mxCell>
        <mxCell id="VtgX_Eldcs1xXr-tKEIO-102" value="" style="ellipse;whiteSpace=wrap;html=1;aspect=fixed;fillColor=#f8cecc;strokeColor=#b85450;" vertex="1" parent="VtgX_Eldcs1xXr-tKEIO-108">
          <mxGeometry x="5" y="35" width="10" height="10" as="geometry" />
        </mxCell>
        <mxCell id="VtgX_Eldcs1xXr-tKEIO-103" value="" style="ellipse;whiteSpace=wrap;html=1;aspect=fixed;fillColor=#ffe6cc;strokeColor=#d79b00;" vertex="1" parent="VtgX_Eldcs1xXr-tKEIO-108">
          <mxGeometry x="5" y="5" width="10" height="10" as="geometry" />
        </mxCell>
        <mxCell id="VtgX_Eldcs1xXr-tKEIO-104" value="" style="rounded=1;whiteSpace=wrap;html=1;fillColor=none;strokeColor=#9673a6;strokeWidth=2;shadow=1;" vertex="1" parent="VtgX_Eldcs1xXr-tKEIO-108">
          <mxGeometry y="60" width="20" height="20" as="geometry" />
        </mxCell>
        <mxCell id="VtgX_Eldcs1xXr-tKEIO-109" value="" style="rounded=0;whiteSpace=wrap;html=1;fillColor=none;" vertex="1" parent="VtgX_Eldcs1xXr-tKEIO-108">
          <mxGeometry x="-10" y="-10" width="310" height="100" as="geometry" />
        </mxCell>
      </root>
    </mxGraphModel>
  </diagram>
</mxfile>
